# xmcd
#
# Track frame offsets: 
#        150
#        23330
#        40677
#        63857
#
# Disc length: 1080 seconds
#
# Revision: 0
# Processed by: cddbd v1.5.2PL0 Copyright (c) Steve Scherf et al.
# Submitted via: ExactAudioCopy v0.99pb3
#
DISCID=20043604
DTITLE=AYUSE KOZUE - Don't let you down
DYEAR=2009
DGENRE=JPop
TTITLE0=Don't let you down
TTITLE1=material girl
TTITLE2=Don't let you down (instrumental)
TTITLE3=material girl (instrumental)
EXTD=
EXTT0=
EXTT1=
EXTT2=
EXTT3=
PLAYORDER=
